<svg width="238" height="422" viewBox="0 0 238 422" fill="none" xmlns="http://www.w3.org/2000/svg">
<path d="M0 422C45.7692 269.348 190.705 265.331 238 422H0Z" fill="#FF2626"/>
<line x1="41" y1="396" x2="41" y2="422" stroke="black" stroke-width="2"/>
<line x1="204" y1="396" x2="204" y2="422" stroke="black" stroke-width="2"/>
<path d="M38 190C38 149.131 71.1309 116 112 116H125C165.869 116 199 149.131 199 190V271C199 311.869 165.869 345 125 345H112C71.1309 345 38 311.869 38 271V190Z" fill="#FFD3A4"/>
<ellipse cx="206.5" cy="236" rx="13.5" ry="20" transform="rotate(15 206.5 236)" fill="#FFD3A4"/>
<ellipse cx="31.5001" cy="238" rx="13.5" ry="20" transform="rotate(-15 31.5001 238)" fill="#FFD3A4"/>
<path d="M116.327 229.5C137.566 254.792 140.898 294.02 103 285.245" stroke="black" stroke-width="1.5"/>
<circle cx="78" cy="225" r="34" fill="#1E1E1E"/>
<circle cx="78.5" cy="225.5" r="26.5" fill="white"/>
<circle cx="158" cy="225" r="34" fill="#1E1E1E"/>
<circle cx="158.5" cy="225.5" r="26.5" fill="white"/>
<rect x="110" y="221" width="16" height="8" fill="#1E1E1E"/>
<rect x="36.9319" y="212" width="16" height="8" transform="rotate(21.4986 36.9319 212)" fill="#1E1E1E"/>
<rect x="185" y="215.864" width="16" height="8" transform="rotate(-21.5 185 215.864)" fill="#1E1E1E"/>
<rect x="192.74" y="173.144" width="18" height="48" rx="9" transform="rotate(6.42094 192.74 173.144)" fill="#9F9E9E"/>
<rect x="24.3384" y="175.174" width="18" height="48" rx="9" transform="rotate(-6.50675 24.3384 175.174)" fill="#9F9E9E"/>
<path d="M93.0083 176C96.322 176 99.0083 178.686 99.0083 182V182C99.0083 185.314 96.322 188 93.0083 188H65C61.6863 188 59 185.314 59 182V182C59 178.686 61.6863 176 65 176H93.0083Z" fill="#9F9E9E"/>
<path d="M144.722 188.265C141.409 188.265 138.722 185.579 138.722 182.265V182.265C138.722 178.951 141.409 176.265 144.722 176.265H172.731C176.044 176.265 178.731 178.951 178.731 182.265V182.265C178.731 185.579 176.044 188.265 172.731 188.265H144.722Z" fill="#9F9E9E"/>
<circle cx="152" cy="220" r="3" fill="white"/>
<path d="M88.619 282.658C85.3983 273.835 95.4452 268.116 102.619 275.158" stroke="black"/>
<path d="M145 281.658C148.221 272.835 138.174 267.116 131 274.158" stroke="black"/>
<path d="M66.059 227.244C78.4986 217.024 84.6721 218.569 95.058 227" stroke="#211F1F" stroke-width="3"/>
<path d="M145.059 227.244C157.498 217.024 163.672 218.569 174.058 227" stroke="#211F1F" stroke-width="3"/>
<rect x="104" y="308" width="29" height="29" rx="14.5" fill="black"/>
<ellipse cx="99.0757" cy="302.953" rx="14.5" ry="22.8895" transform="rotate(73.4181 99.0757 302.953)" fill="#9F9E9E"/>
<ellipse cx="138.099" cy="302.429" rx="14.5" ry="22.8895" transform="rotate(-73.42 138.099 302.429)" fill="#9F9E9E"/>
<rect x="9.35996" y="156.613" width="204.633" height="26.2308" rx="9.5" transform="rotate(-3.2371 9.35996 156.613)" fill="white" stroke="black"/>
<path d="M201.788 144.803L28.5271 154.602C61.7205 125.521 61.7506 87.2031 58.0647 14.4291C131.738 39.0781 169.504 58.1966 201.788 144.803Z" fill="#FF2626" stroke="#A90000"/>
<circle cx="52.3754" cy="24" r="23.5" fill="white" stroke="black"/>
</svg>
