<svg width="238" height="306" viewBox="0 0 238 306" fill="none" xmlns="http://www.w3.org/2000/svg">
<path d="M0 306C45.7692 153.348 190.705 149.331 238 306H0Z" fill="#FFF6B0"/>
<line x1="41" y1="280" x2="41" y2="306" stroke="black" stroke-width="2"/>
<line x1="204" y1="280" x2="204" y2="306" stroke="black" stroke-width="2"/>
<path d="M38 74C38 33.1309 71.1309 0 112 0H125C165.869 0 199 33.1309 199 74V155C199 195.869 165.869 229 125 229H112C71.1309 229 38 195.869 38 155V74Z" fill="#FFD3A4"/>
<ellipse cx="206.5" cy="120" rx="13.5" ry="20" transform="rotate(15 206.5 120)" fill="#FFD3A4"/>
<ellipse cx="31.5001" cy="122" rx="13.5" ry="20" transform="rotate(-15 31.5001 122)" fill="#FFD3A4"/>
<path d="M116.327 113.5C137.566 138.792 140.898 178.02 103 169.245" stroke="black" stroke-width="1.5"/>
<circle cx="78" cy="109" r="34" fill="#1E1E1E"/>
<circle cx="78.5" cy="109.5" r="26.5" fill="white"/>
<circle cx="78.5" cy="109.5" r="11.5" fill="black"/>
<circle cx="158" cy="109" r="34" fill="#1E1E1E"/>
<circle cx="158.5" cy="109.5" r="26.5" fill="white"/>
<circle cx="157.5" cy="109.5" r="11.5" fill="black"/>
<rect x="110" y="105" width="16" height="8" fill="#1E1E1E"/>
<rect x="36.9319" y="96" width="16" height="8" transform="rotate(21.4986 36.9319 96)" fill="#1E1E1E"/>
<rect x="185" y="99.864" width="16" height="8" transform="rotate(-21.5 185 99.864)" fill="#1E1E1E"/>
<rect x="192.74" y="57.1441" width="18" height="48" rx="9" transform="rotate(6.42094 192.74 57.1441)" fill="#9F9E9E"/>
<rect x="24.3384" y="59.1745" width="18" height="48" rx="9" transform="rotate(-6.50675 24.3384 59.1745)" fill="#9F9E9E"/>
<path d="M95.5117 64.3325C98.6156 65.4928 100.191 68.9497 99.0309 72.0536V72.0536C97.8705 75.1575 94.4137 76.7331 91.3098 75.5727L65.0747 65.7653C61.9708 64.605 60.3952 61.1481 61.5556 58.0442V58.0442C62.7159 54.9403 66.1728 53.3647 69.2767 54.525L95.5117 64.3325Z" fill="#9F9E9E"/>
<path d="M137.799 55.0792C134.692 56.2317 131.239 54.6475 130.087 51.5407V51.5407C128.934 48.4338 130.519 44.981 133.625 43.8284L159.885 34.0869C162.992 32.9343 166.445 34.5186 167.597 37.6254V37.6254C168.75 40.7322 167.165 44.1851 164.059 45.3376L137.799 55.0792Z" fill="#9F9E9E"/>
<circle cx="76" cy="104" r="3" fill="white"/>
<circle cx="152" cy="104" r="3" fill="white"/>
<ellipse cx="99.0757" cy="186.953" rx="14.5" ry="22.8895" transform="rotate(73.4181 99.0757 186.953)" fill="#9F9E9E"/>
<ellipse cx="138.099" cy="186.429" rx="14.5" ry="22.8895" transform="rotate(-73.42 138.099 186.429)" fill="#9F9E9E"/>
<path d="M88.619 166.658C85.3983 157.835 95.4452 152.116 102.619 159.158" stroke="black"/>
<path d="M145 165.658C148.221 156.835 138.174 151.116 131 158.158" stroke="black"/>
</svg>
