<svg width="238" height="300" viewBox="0 0 238 300" fill="none" xmlns="http://www.w3.org/2000/svg">
<path d="M0 300C45.7692 147.348 190.705 143.331 238 300H0Z" fill="#FFF6B0"/>
<line x1="41" y1="274" x2="41" y2="300" stroke="black" stroke-width="2"/>
<line x1="204" y1="274" x2="204" y2="300" stroke="black" stroke-width="2"/>
<path d="M38 74C38 33.1309 71.1309 0 112 0H125C165.869 0 199 33.1309 199 74V155C199 195.869 165.869 229 125 229H112C71.1309 229 38 195.869 38 155V74Z" fill="#FFD3A4"/>
<ellipse cx="206.5" cy="120" rx="13.5" ry="20" transform="rotate(15 206.5 120)" fill="#FFD3A4"/>
<ellipse cx="31.5" cy="122" rx="13.5" ry="20" transform="rotate(-15 31.5 122)" fill="#FFD3A4"/>
<path d="M116.327 113.5C137.566 138.792 140.898 178.02 103 169.245" stroke="black" stroke-width="1.5"/>
<circle cx="78" cy="109" r="34" fill="#1E1E1E"/>
<circle cx="78.5" cy="109.5" r="26.5" fill="white"/>
<circle cx="78.5" cy="109.5" r="11.5" fill="black"/>
<circle cx="158" cy="109" r="34" fill="#1E1E1E"/>
<circle cx="158.5" cy="109.5" r="26.5" fill="white"/>
<circle cx="157.5" cy="109.5" r="11.5" fill="black"/>
<rect x="110" y="105" width="16" height="8" fill="#1E1E1E"/>
<rect x="36.9318" y="96" width="16" height="8" transform="rotate(21.4986 36.9318 96)" fill="#1E1E1E"/>
<rect x="185" y="99.864" width="16" height="8" transform="rotate(-21.5 185 99.864)" fill="#1E1E1E"/>
<rect x="192.74" y="57.1441" width="18" height="48" rx="9" transform="rotate(6.42094 192.74 57.1441)" fill="#9F9E9E"/>
<rect x="24.3383" y="59.1745" width="18" height="48" rx="9" transform="rotate(-6.50675 24.3383 59.1745)" fill="#9F9E9E"/>
<path d="M92.1822 38.9253C95.4548 38.4052 98.5294 40.6366 99.0495 43.9092V43.9092C99.5696 47.1818 97.3382 50.2565 94.0656 50.7766L66.4044 55.1725C63.1318 55.6926 60.0572 53.4612 59.5371 50.1886V50.1886C59.017 46.9159 61.2484 43.8413 64.521 43.3212L92.1822 38.9253Z" fill="#9F9E9E"/>
<path d="M143.915 50.8353C140.648 50.2804 138.45 47.1822 139.005 43.9153V43.9153C139.56 40.6484 142.658 38.4498 145.925 39.0048L173.538 43.6951C176.804 44.25 179.003 47.3482 178.448 50.6151V50.6151C177.893 53.882 174.795 56.0805 171.528 55.5256L143.915 50.8353Z" fill="#9F9E9E"/>
<circle cx="76" cy="104" r="3" fill="white"/>
<circle cx="152" cy="104" r="3" fill="white"/>
<path d="M91 207C111.427 180.856 127.438 182.49 144 207H91Z" fill="white" stroke="black"/>
<ellipse cx="99.0757" cy="186.953" rx="14.5" ry="22.8895" transform="rotate(73.4181 99.0757 186.953)" fill="#9F9E9E"/>
<ellipse cx="138.099" cy="186.429" rx="14.5" ry="22.8895" transform="rotate(-73.42 138.099 186.429)" fill="#9F9E9E"/>
<path d="M88.619 166.658C85.3983 157.835 95.4452 152.116 102.619 159.158" stroke="black"/>
<path d="M145 165.658C148.221 156.835 138.174 151.116 131 158.158" stroke="black"/>
</svg>
