<svg width="243" height="307" viewBox="0 0 243 307" fill="none" xmlns="http://www.w3.org/2000/svg">
<path d="M1.99994 305.992C47.7692 153.34 192.705 149.323 240 305.992H1.99994Z" fill="#FFF6B0"/>
<line x1="42.9999" y1="279.992" x2="42.9999" y2="305.992" stroke="black" stroke-width="2"/>
<line x1="206" y1="279.992" x2="206" y2="305.992" stroke="black" stroke-width="2"/>
<path d="M40.6988 75.9029C40.3552 35.0353 73.2063 1.62695 114.074 1.28326L127.073 1.17394C167.941 0.830255 201.349 33.6814 201.693 74.549L202.374 155.546C202.718 196.414 169.867 229.822 128.999 230.166L116 230.275C75.1321 230.619 41.7237 197.768 41.38 156.9L40.6988 75.9029Z" fill="#FFD3A4"/>
<ellipse cx="209.58" cy="120.484" rx="13.5" ry="20" transform="rotate(14.5182 209.58 120.484)" fill="#FFD3A4"/>
<ellipse cx="34.6027" cy="123.956" rx="13.5" ry="20" transform="rotate(-15.4818 34.6027 123.956)" fill="#FFD3A4"/>
<path d="M119.355 114.743C140.806 139.855 144.468 179.054 106.498 170.598" stroke="black" stroke-width="1.5"/>
<circle cx="80.9918" cy="110.565" r="34" transform="rotate(-0.481832 80.9918 110.565)" fill="#1E1E1E"/>
<circle cx="81.4959" cy="111.061" r="26.5" transform="rotate(-0.481832 81.4959 111.061)" fill="white"/>
<circle cx="160.989" cy="109.893" r="34" transform="rotate(-0.481832 160.989 109.893)" fill="#1E1E1E"/>
<circle cx="161.493" cy="110.388" r="26.5" transform="rotate(-0.481832 161.493 110.388)" fill="white"/>
<rect x="112.957" y="106.296" width="16" height="8" transform="rotate(-0.481832 112.957 106.296)" fill="#1E1E1E"/>
<rect x="39.8157" y="97.9112" width="16" height="8" transform="rotate(21.0168 39.8157 97.9112)" fill="#1E1E1E"/>
<rect x="187.911" y="100.53" width="16" height="8" transform="rotate(-21.9818 187.911 100.53)" fill="#1E1E1E"/>
<rect x="195.292" y="57.7463" width="18" height="48" rx="9" transform="rotate(5.93911 195.292 57.7463)" fill="#9F9E9E"/>
<rect x="26.9129" y="62.1928" width="18" height="48" rx="9" transform="rotate(-6.98858 26.9129 62.1928)" fill="#9F9E9E"/>
<path d="M97.1382 61.8028C100.43 61.4241 103.406 63.7859 103.785 67.0779V67.0779C104.163 70.3699 101.801 73.3455 98.5095 73.7242L70.6847 76.9247C67.3927 77.3034 64.417 74.9416 64.0384 71.6496V71.6496C63.6597 68.3576 66.0214 65.382 69.3134 65.0033L97.1382 61.8028Z" fill="#9F9E9E"/>
<path d="M142.705 71.9404C139.434 71.4129 137.209 68.3333 137.737 65.0619V65.0619C138.264 61.7904 141.344 59.5659 144.615 60.0933L172.266 64.5513C175.538 65.0787 177.762 68.1583 177.235 71.4298V71.4298C176.707 74.7012 173.628 76.9257 170.356 76.3983L142.705 71.9404Z" fill="#9F9E9E"/>
<circle cx="78.9498" cy="105.582" r="3" transform="rotate(-0.481832 78.9498 105.582)" fill="white"/>
<path d="M81.9999 197.648C112.304 226.289 135.851 224.285 159.997 196.992L81.9999 197.648Z" fill="white" stroke="black"/>
<ellipse cx="101.251" cy="187.492" rx="14.5" ry="22.8895" transform="rotate(72.9363 101.251 187.492)" fill="#9F9E9E"/>
<ellipse cx="140.268" cy="186.639" rx="14.5" ry="22.8895" transform="rotate(-73.9018 140.268 186.639)" fill="#9F9E9E"/>
<path d="M92.0952 168.132C88.8005 159.336 98.7989 153.533 106.032 160.515" stroke="black"/>
<path d="M148.466 166.658C151.612 157.808 141.518 152.174 134.403 159.276" stroke="black"/>
<path d="M67.0091 112.683C79.4487 102.463 85.6222 104.009 96.0081 112.439" stroke="#211F1F" stroke-width="3"/>
<path d="M147.006 112.01C159.446 101.79 165.619 103.336 176.005 111.766" stroke="#211F1F" stroke-width="3"/>
</svg>
