<svg width="238" height="410" viewBox="0 0 238 410" fill="none" xmlns="http://www.w3.org/2000/svg">
<path d="M40 182C40 141.131 73.1309 108 114 108H127C167.869 108 201 141.131 201 182V263C201 303.869 167.869 337 127 337H114C73.1309 337 40 303.869 40 263V182Z" fill="#FFD3A4"/>
<ellipse cx="208.5" cy="228" rx="13.5" ry="20" transform="rotate(15 208.5 228)" fill="#FFD3A4"/>
<ellipse cx="33.5" cy="230" rx="13.5" ry="20" transform="rotate(-15 33.5 230)" fill="#FFD3A4"/>
<path d="M118.327 221.5C139.566 246.792 142.898 286.02 105 277.245" stroke="black" stroke-width="1.5"/>
<circle cx="80" cy="217" r="34" fill="#1E1E1E"/>
<circle cx="80.5" cy="217.5" r="26.5" fill="white"/>
<circle cx="80.5" cy="217.5" r="11.5" fill="black"/>
<circle cx="160" cy="217" r="34" fill="#1E1E1E"/>
<circle cx="160.5" cy="217.5" r="26.5" fill="white"/>
<circle cx="159.5" cy="217.5" r="11.5" fill="black"/>
<rect x="112" y="213" width="16" height="8" fill="#1E1E1E"/>
<rect x="38.9318" y="204" width="16" height="8" transform="rotate(21.4986 38.9318 204)" fill="#1E1E1E"/>
<rect x="187" y="207.864" width="16" height="8" transform="rotate(-21.5 187 207.864)" fill="#1E1E1E"/>
<rect x="194.74" y="165.144" width="18" height="48" rx="9" transform="rotate(6.42094 194.74 165.144)" fill="#9F9E9E"/>
<rect x="26.3383" y="167.174" width="18" height="48" rx="9" transform="rotate(-6.50675 26.3383 167.174)" fill="#9F9E9E"/>
<path d="M96.9335 169.093C100.243 168.918 103.067 171.458 103.242 174.767V174.767C103.417 178.076 100.877 180.901 97.5678 181.076L69.5986 182.556C66.2896 182.731 63.465 180.191 63.2899 176.882V176.882C63.1148 173.573 65.6553 170.748 68.9644 170.573L96.9335 169.093Z" fill="#9F9E9E"/>
<path d="M142.036 178.895C138.769 178.34 136.571 175.242 137.125 171.975V171.975C137.68 168.708 140.779 166.51 144.046 167.065L171.658 171.755C174.925 172.31 177.124 175.408 176.569 178.675V178.675C176.014 181.942 172.916 184.141 169.649 183.586L142.036 178.895Z" fill="#9F9E9E"/>
<circle cx="78" cy="212" r="3" fill="white"/>
<circle cx="154" cy="212" r="3" fill="white"/>
<path d="M90 308C110.427 325.888 126.438 324.77 143 308H90Z" fill="white" stroke="black"/>
<ellipse cx="96.0757" cy="294.953" rx="14.5" ry="22.8895" transform="rotate(73.4181 96.0757 294.953)" fill="#9F9E9E"/>
<ellipse cx="135.099" cy="294.429" rx="14.5" ry="22.8895" transform="rotate(-73.42 135.099 294.429)" fill="#9F9E9E"/>
<path d="M90.619 274.658C87.3983 265.835 97.4452 260.116 104.619 267.158" stroke="black"/>
<path d="M147 273.658C150.221 264.835 140.174 259.116 133 266.158" stroke="black"/>
<path d="M0 410C45.7692 257.348 190.705 253.331 238 410H0Z" fill="#FF2626"/>
<line x1="41" y1="384" x2="41" y2="410" stroke="black" stroke-width="2"/>
<line x1="204" y1="384" x2="204" y2="410" stroke="black" stroke-width="2"/>
<path d="M40 182C40 141.131 73.1309 108 114 108H127C167.869 108 201 141.131 201 182V263C201 303.869 167.869 337 127 337H114C73.1309 337 40 303.869 40 263V182Z" fill="#FFD3A4"/>
<ellipse cx="208.5" cy="228" rx="13.5" ry="20" transform="rotate(15 208.5 228)" fill="#FFD3A4"/>
<ellipse cx="33.5" cy="230" rx="13.5" ry="20" transform="rotate(-15 33.5 230)" fill="#FFD3A4"/>
<path d="M118.327 221.5C139.566 246.792 142.898 286.02 105 277.245" stroke="black" stroke-width="1.5"/>
<circle cx="80" cy="217" r="34" fill="#1E1E1E"/>
<circle cx="80.5" cy="217.5" r="26.5" fill="white"/>
<circle cx="80.5" cy="217.5" r="11.5" fill="black"/>
<circle cx="160" cy="217" r="34" fill="#1E1E1E"/>
<circle cx="160.5" cy="217.5" r="26.5" fill="white"/>
<circle cx="159.5" cy="217.5" r="11.5" fill="black"/>
<rect x="112" y="213" width="16" height="8" fill="#1E1E1E"/>
<rect x="38.9318" y="204" width="16" height="8" transform="rotate(21.4986 38.9318 204)" fill="#1E1E1E"/>
<rect x="187" y="207.864" width="16" height="8" transform="rotate(-21.5 187 207.864)" fill="#1E1E1E"/>
<rect x="194.74" y="165.144" width="18" height="48" rx="9" transform="rotate(6.42094 194.74 165.144)" fill="#9F9E9E"/>
<rect x="26.3383" y="167.174" width="18" height="48" rx="9" transform="rotate(-6.50675 26.3383 167.174)" fill="#9F9E9E"/>
<path d="M96.9335 169.093C100.243 168.918 103.067 171.458 103.242 174.767V174.767C103.417 178.076 100.877 180.901 97.5678 181.076L69.5986 182.556C66.2896 182.731 63.465 180.191 63.2899 176.882V176.882C63.1148 173.573 65.6553 170.748 68.9644 170.573L96.9335 169.093Z" fill="#9F9E9E"/>
<path d="M142.036 178.895C138.769 178.34 136.571 175.242 137.125 171.975V171.975C137.68 168.708 140.779 166.51 144.046 167.065L171.658 171.755C174.925 172.31 177.124 175.408 176.569 178.675V178.675C176.014 181.942 172.916 184.141 169.649 183.586L142.036 178.895Z" fill="#9F9E9E"/>
<circle cx="78" cy="212" r="3" fill="white"/>
<circle cx="154" cy="212" r="3" fill="white"/>
<path d="M90 308C110.427 325.888 126.438 324.77 143 308H90Z" fill="white" stroke="black"/>
<ellipse cx="96.0757" cy="294.953" rx="14.5" ry="22.8895" transform="rotate(73.4181 96.0757 294.953)" fill="#9F9E9E"/>
<ellipse cx="135.099" cy="294.429" rx="14.5" ry="22.8895" transform="rotate(-73.42 135.099 294.429)" fill="#9F9E9E"/>
<path d="M90.619 274.658C87.3983 265.835 97.4452 260.116 104.619 267.158" stroke="black"/>
<path d="M147 273.658C150.221 264.835 140.174 259.116 133 266.158" stroke="black"/>
<rect x="12.3599" y="156.613" width="204.633" height="26.2308" rx="9.5" transform="rotate(-3.2371 12.3599 156.613)" fill="white" stroke="black"/>
<path d="M204.788 144.803L31.527 154.602C64.7205 125.521 64.7505 87.2031 61.0647 14.4291C134.738 39.0781 172.504 58.1966 204.788 144.803Z" fill="#FF2626" stroke="#A90000"/>
<circle cx="55.3753" cy="24" r="23.5" fill="white" stroke="black"/>
</svg>
