<svg width="238" height="306" viewBox="0 0 238 306" fill="none" xmlns="http://www.w3.org/2000/svg">
<path d="M0 306C45.7692 153.348 190.705 149.331 238 306H0Z" fill="#FFF6B0"/>
<line x1="41" y1="280" x2="41" y2="306" stroke="black" stroke-width="2"/>
<line x1="204" y1="280" x2="204" y2="306" stroke="black" stroke-width="2"/>
<path d="M38 74C38 33.1309 71.1309 0 112 0H125C165.869 0 199 33.1309 199 74V155C199 195.869 165.869 229 125 229H112C71.1309 229 38 195.869 38 155V74Z" fill="#FFD3A4"/>
<ellipse cx="206.5" cy="120" rx="13.5" ry="20" transform="rotate(15 206.5 120)" fill="#FFD3A4"/>
<ellipse cx="31.5" cy="122" rx="13.5" ry="20" transform="rotate(-15 31.5 122)" fill="#FFD3A4"/>
<path d="M116.327 113.5C137.566 138.792 140.898 178.02 103 169.245" stroke="black" stroke-width="1.5"/>
<circle cx="78" cy="109" r="34" fill="#1E1E1E"/>
<circle cx="78.5" cy="109.5" r="26.5" fill="white"/>
<circle cx="158" cy="109" r="34" fill="#1E1E1E"/>
<circle cx="158.5" cy="109.5" r="26.5" fill="white"/>
<rect x="110" y="105" width="16" height="8" fill="#1E1E1E"/>
<rect x="36.9318" y="96" width="16" height="8" transform="rotate(21.4986 36.9318 96)" fill="#1E1E1E"/>
<rect x="185" y="99.864" width="16" height="8" transform="rotate(-21.5 185 99.864)" fill="#1E1E1E"/>
<rect x="192.74" y="57.1441" width="18" height="48" rx="9" transform="rotate(6.42094 192.74 57.1441)" fill="#9F9E9E"/>
<rect x="24.3383" y="59.1745" width="18" height="48" rx="9" transform="rotate(-6.50675 24.3383 59.1745)" fill="#9F9E9E"/>
<path d="M93.0083 60C96.322 60 99.0083 62.6863 99.0083 66V66C99.0083 69.3137 96.322 72 93.0083 72H65C61.6863 72 59 69.3137 59 66V66C59 62.6863 61.6863 60 65 60L93.0083 60Z" fill="#9F9E9E"/>
<path d="M144.722 72.2652C141.409 72.2652 138.722 69.5789 138.722 66.2652V66.2652C138.722 62.9515 141.409 60.2652 144.722 60.2652H172.731C176.044 60.2652 178.731 62.9515 178.731 66.2652V66.2652C178.731 69.5789 176.044 72.2652 172.731 72.2652H144.722Z" fill="#9F9E9E"/>
<circle cx="152" cy="104" r="3" fill="white"/>
<path d="M88.619 166.658C85.3983 157.835 95.4452 152.116 102.619 159.158" stroke="black"/>
<path d="M145 165.658C148.221 156.835 138.174 151.116 131 158.158" stroke="black"/>
<path d="M66.0589 111.244C78.4984 101.024 84.672 102.569 95.0578 111" stroke="#211F1F" stroke-width="3"/>
<path d="M145.059 111.244C157.498 101.024 163.672 102.569 174.058 111" stroke="#211F1F" stroke-width="3"/>
<rect x="109" y="190" width="19" height="19" rx="9.5" fill="black"/>
<ellipse cx="99.0757" cy="186.953" rx="14.5" ry="22.8895" transform="rotate(73.4181 99.0757 186.953)" fill="#9F9E9E"/>
<ellipse cx="138.099" cy="186.429" rx="14.5" ry="22.8895" transform="rotate(-73.42 138.099 186.429)" fill="#9F9E9E"/>
</svg>
