<svg width="238" height="302" viewBox="0 0 238 302" fill="none" xmlns="http://www.w3.org/2000/svg">
<path d="M40 74C40 33.1309 73.1309 0 114 0H127C167.869 0 201 33.1309 201 74V155C201 195.869 167.869 229 127 229H114C73.1309 229 40 195.869 40 155V74Z" fill="#FFD3A4"/>
<ellipse cx="208.5" cy="120" rx="13.5" ry="20" transform="rotate(15 208.5 120)" fill="#FFD3A4"/>
<ellipse cx="33.5" cy="122" rx="13.5" ry="20" transform="rotate(-15 33.5 122)" fill="#FFD3A4"/>
<path d="M118.327 113.5C139.566 138.792 142.898 178.02 105 169.245" stroke="black" stroke-width="1.5"/>
<circle cx="80" cy="109" r="34" fill="#1E1E1E"/>
<circle cx="80.5" cy="109.5" r="26.5" fill="white"/>
<circle cx="80.5" cy="109.5" r="11.5" fill="black"/>
<circle cx="160" cy="109" r="34" fill="#1E1E1E"/>
<circle cx="160.5" cy="109.5" r="26.5" fill="white"/>
<circle cx="159.5" cy="109.5" r="11.5" fill="black"/>
<rect x="112" y="105" width="16" height="8" fill="#1E1E1E"/>
<rect x="38.9318" y="96" width="16" height="8" transform="rotate(21.4986 38.9318 96)" fill="#1E1E1E"/>
<rect x="187" y="99.864" width="16" height="8" transform="rotate(-21.5 187 99.864)" fill="#1E1E1E"/>
<rect x="194.74" y="57.1441" width="18" height="48" rx="9" transform="rotate(6.42094 194.74 57.1441)" fill="#9F9E9E"/>
<rect x="26.3383" y="59.1745" width="18" height="48" rx="9" transform="rotate(-6.50675 26.3383 59.1745)" fill="#9F9E9E"/>
<path d="M96.9335 61.0927C100.243 60.9175 103.067 63.4581 103.242 66.7672V66.7672C103.417 70.0762 100.877 72.9008 97.5678 73.0759L69.5986 74.5562C66.2896 74.7313 63.465 72.1908 63.2899 68.8817V68.8817C63.1148 65.5726 65.6553 62.7481 68.9644 62.573L96.9335 61.0927Z" fill="#9F9E9E"/>
<path d="M142.036 70.8954C138.769 70.3405 136.571 67.2423 137.125 63.9753V63.9753C137.68 60.7084 140.779 58.5099 144.046 59.0648L171.658 63.7551C174.925 64.31 177.124 67.4082 176.569 70.6752V70.6752C176.014 73.9421 172.916 76.1406 169.649 75.5857L142.036 70.8954Z" fill="#9F9E9E"/>
<circle cx="78" cy="104" r="3" fill="white"/>
<circle cx="154" cy="104" r="3" fill="white"/>
<path d="M90 200C110.427 217.888 126.438 216.77 143 200H90Z" fill="white" stroke="black"/>
<ellipse cx="96.0757" cy="186.953" rx="14.5" ry="22.8895" transform="rotate(73.4181 96.0757 186.953)" fill="#9F9E9E"/>
<ellipse cx="135.099" cy="186.429" rx="14.5" ry="22.8895" transform="rotate(-73.42 135.099 186.429)" fill="#9F9E9E"/>
<path d="M90.619 166.658C87.3983 157.835 97.4452 152.116 104.619 159.158" stroke="black"/>
<path d="M147 165.658C150.221 156.835 140.174 151.116 133 158.158" stroke="black"/>
<path d="M0 302C45.7692 149.348 190.705 145.331 238 302H0Z" fill="#FFF6B0"/>
<line x1="41" y1="276" x2="41" y2="302" stroke="black" stroke-width="2"/>
<line x1="204" y1="276" x2="204" y2="302" stroke="black" stroke-width="2"/>
<path d="M40 74C40 33.1309 73.1309 0 114 0H127C167.869 0 201 33.1309 201 74V155C201 195.869 167.869 229 127 229H114C73.1309 229 40 195.869 40 155V74Z" fill="#FFD3A4"/>
<ellipse cx="208.5" cy="120" rx="13.5" ry="20" transform="rotate(15 208.5 120)" fill="#FFD3A4"/>
<ellipse cx="33.5" cy="122" rx="13.5" ry="20" transform="rotate(-15 33.5 122)" fill="#FFD3A4"/>
<path d="M118.327 113.5C139.566 138.792 142.898 178.02 105 169.245" stroke="black" stroke-width="1.5"/>
<circle cx="80" cy="109" r="34" fill="#1E1E1E"/>
<circle cx="80.5" cy="109.5" r="26.5" fill="white"/>
<circle cx="80.5" cy="109.5" r="11.5" fill="black"/>
<circle cx="160" cy="109" r="34" fill="#1E1E1E"/>
<circle cx="160.5" cy="109.5" r="26.5" fill="white"/>
<circle cx="159.5" cy="109.5" r="11.5" fill="black"/>
<rect x="112" y="105" width="16" height="8" fill="#1E1E1E"/>
<rect x="38.9318" y="96" width="16" height="8" transform="rotate(21.4986 38.9318 96)" fill="#1E1E1E"/>
<rect x="187" y="99.864" width="16" height="8" transform="rotate(-21.5 187 99.864)" fill="#1E1E1E"/>
<rect x="194.74" y="57.1441" width="18" height="48" rx="9" transform="rotate(6.42094 194.74 57.1441)" fill="#9F9E9E"/>
<rect x="26.3383" y="59.1745" width="18" height="48" rx="9" transform="rotate(-6.50675 26.3383 59.1745)" fill="#9F9E9E"/>
<path d="M96.9335 61.0927C100.243 60.9175 103.067 63.4581 103.242 66.7672V66.7672C103.417 70.0762 100.877 72.9008 97.5678 73.0759L69.5986 74.5562C66.2896 74.7313 63.465 72.1908 63.2899 68.8817V68.8817C63.1148 65.5726 65.6553 62.7481 68.9644 62.573L96.9335 61.0927Z" fill="#9F9E9E"/>
<path d="M142.036 70.8954C138.769 70.3405 136.571 67.2423 137.125 63.9753V63.9753C137.68 60.7084 140.779 58.5099 144.046 59.0648L171.658 63.7551C174.925 64.31 177.124 67.4082 176.569 70.6752V70.6752C176.014 73.9421 172.916 76.1406 169.649 75.5857L142.036 70.8954Z" fill="#9F9E9E"/>
<circle cx="78" cy="104" r="3" fill="white"/>
<circle cx="154" cy="104" r="3" fill="white"/>
<path d="M90 200C110.427 217.888 126.438 216.77 143 200H90Z" fill="white" stroke="black"/>
<ellipse cx="96.0757" cy="186.953" rx="14.5" ry="22.8895" transform="rotate(73.4181 96.0757 186.953)" fill="#9F9E9E"/>
<ellipse cx="135.099" cy="186.429" rx="14.5" ry="22.8895" transform="rotate(-73.42 135.099 186.429)" fill="#9F9E9E"/>
<path d="M90.619 166.658C87.3983 157.835 97.4452 152.116 104.619 159.158" stroke="black"/>
<path d="M147 165.658C150.221 156.835 140.174 151.116 133 158.158" stroke="black"/>
</svg>
