<svg width="238" height="300" viewBox="0 0 238 300" fill="none" xmlns="http://www.w3.org/2000/svg">
<path d="M0 300C45.7692 147.348 190.705 143.331 238 300H0Z" fill="#FFF6B0"/>
<line x1="41" y1="274" x2="41" y2="300" stroke="black" stroke-width="2"/>
<line x1="204" y1="274" x2="204" y2="300" stroke="black" stroke-width="2"/>
<path d="M38 74C38 33.1309 71.1309 0 112 0H125C165.869 0 199 33.1309 199 74V155C199 195.869 165.869 229 125 229H112C71.1309 229 38 195.869 38 155V74Z" fill="#FFD3A4"/>
<ellipse cx="206.5" cy="120" rx="13.5" ry="20" transform="rotate(15 206.5 120)" fill="#FFD3A4"/>
<ellipse cx="31.5" cy="122" rx="13.5" ry="20" transform="rotate(-15 31.5 122)" fill="#FFD3A4"/>
<path d="M116.327 113.5C137.566 138.792 140.898 178.02 103 169.245" stroke="black" stroke-width="1.5"/>
<circle cx="78" cy="109" r="34" fill="#1E1E1E"/>
<circle cx="78.5" cy="109.5" r="26.5" fill="white"/>
<circle cx="78.5" cy="109.5" r="11.5" fill="black"/>
<circle cx="158" cy="109" r="34" fill="#1E1E1E"/>
<circle cx="158.5" cy="109.5" r="26.5" fill="white"/>
<circle cx="157.5" cy="109.5" r="11.5" fill="black"/>
<rect x="110" y="105" width="16" height="8" fill="#1E1E1E"/>
<rect x="36.9318" y="96" width="16" height="8" transform="rotate(21.4986 36.9318 96)" fill="#1E1E1E"/>
<rect x="185" y="99.864" width="16" height="8" transform="rotate(-21.5 185 99.864)" fill="#1E1E1E"/>
<rect x="192.74" y="57.144" width="18" height="48" rx="9" transform="rotate(6.42094 192.74 57.144)" fill="#9F9E9E"/>
<rect x="24.3383" y="59.1745" width="18" height="48" rx="9" transform="rotate(-6.50675 24.3383 59.1745)" fill="#9F9E9E"/>
<path d="M102.926 64.0708C105.943 65.4418 107.277 68.9988 105.906 72.0156V72.0156C104.535 75.0324 100.978 76.3665 97.9609 74.9955L72.4624 63.4072C69.4456 62.0362 68.1114 58.4791 69.4825 55.4624V55.4624C70.8535 52.4456 74.4105 51.1114 77.4273 52.4825L102.926 64.0708Z" fill="#9F9E9E"/>
<path d="M137.551 74.5225C134.555 75.9381 130.979 74.6569 129.563 71.6607V71.6607C128.148 68.6646 129.429 65.0882 132.425 63.6726L157.749 51.7076C160.745 50.292 164.321 51.5733 165.737 54.5694V54.5694C167.153 57.5656 165.871 61.142 162.875 62.5576L137.551 74.5225Z" fill="#9F9E9E"/>
<circle cx="76" cy="104" r="3" fill="white"/>
<circle cx="152" cy="104" r="3" fill="white"/>
<path d="M88.619 166.658C85.3983 157.835 95.4452 152.116 102.619 159.158" stroke="black"/>
<path d="M145 165.658C148.221 156.835 138.174 151.116 131 158.158" stroke="black"/>
<ellipse cx="117.5" cy="206.5" rx="25.5" ry="12.5" fill="black"/>
<ellipse cx="99.0757" cy="186.953" rx="14.5" ry="22.8895" transform="rotate(73.4181 99.0757 186.953)" fill="#9F9E9E"/>
<ellipse cx="138.099" cy="186.429" rx="14.5" ry="22.8895" transform="rotate(-73.42 138.099 186.429)" fill="#9F9E9E"/>
</svg>
